<svg xmlns="http://www.w3.org/2000/svg" xmlns:xlink="http://www.w3.org/1999/xlink" width="500" zoomAndPan="magnify" viewBox="0 0 375 374.999991" height="500" preserveAspectRatio="xMidYMid meet" version="1.0"><defs><clipPath id="3814114264"><path d="M 176 125.957031 L 199 125.957031 L 199 141 L 176 141 Z M 176 125.957031 " clip-rule="nonzero"/></clipPath><clipPath id="f163feffd5"><path d="M 239 207 L 253.785156 207 L 253.785156 226 L 239 226 Z M 239 207 " clip-rule="nonzero"/></clipPath><clipPath id="3ea2d421e6"><path d="M 173 237 L 198 237 L 198 248.957031 L 173 248.957031 Z M 173 237 " clip-rule="nonzero"/></clipPath><clipPath id="8f6e368e78"><path d="M 135.285156 214 L 145 214 L 145 233 L 135.285156 233 Z M 135.285156 214 " clip-rule="nonzero"/></clipPath><clipPath id="29eee5c6f3"><path d="M 135.285156 213 L 152 213 L 152 236 L 135.285156 236 Z M 135.285156 213 " clip-rule="nonzero"/></clipPath><clipPath id="cdaf934925"><path d="M 135.285156 148 L 152 148 L 152 167 L 135.285156 167 Z M 135.285156 148 " clip-rule="nonzero"/></clipPath><clipPath id="f04c72a0c9"><path d="M 135.285156 151 L 155 151 L 155 175 L 135.285156 175 Z M 135.285156 151 " clip-rule="nonzero"/></clipPath><clipPath id="d67373100c"><path d="M 135.285156 152 L 247 152 L 247 234 L 135.285156 234 Z M 135.285156 152 " clip-rule="nonzero"/></clipPath><clipPath id="47f31c560e"><path d="M 158 130 L 222 130 L 222 248.957031 L 158 248.957031 Z M 158 130 " clip-rule="nonzero"/></clipPath><clipPath id="bb0677c97d"><path d="M 135.285156 189 L 164 189 L 164 220 L 135.285156 220 Z M 135.285156 189 " clip-rule="nonzero"/></clipPath></defs><path fill="#27665a" d="M 375.019531 187.507812 C 375.019531 291.066406 291.070312 375.019531 187.507812 375.019531 C 83.949219 375.019531 0 291.066406 0 187.507812 C 0 83.949219 83.949219 0 187.507812 0 C 291.070312 0 375.019531 83.949219 375.019531 187.507812 " fill-opacity="1" fill-rule="nonzero"/><path fill="#f3cc55" d="M 254.625 191.644531 L 254.625 183.367188 L 264.246094 183.367188 L 264.246094 191.644531 L 254.625 191.644531 " fill-opacity="1" fill-rule="nonzero"/><path fill="#f3cc55" d="M 254.625 176.710938 L 254.625 168.433594 L 264.246094 168.433594 L 264.246094 176.710938 L 254.625 176.710938 " fill-opacity="1" fill-rule="nonzero"/><path fill="#f3cc55" d="M 254.625 161.78125 L 254.625 153.5 L 264.246094 153.5 L 264.246094 161.78125 L 254.625 161.78125 " fill-opacity="1" fill-rule="nonzero"/><path fill="#f3cc55" d="M 254.625 146.847656 L 254.625 138.570312 L 264.246094 138.570312 L 264.246094 146.847656 L 254.625 146.847656 " fill-opacity="1" fill-rule="nonzero"/><path fill="#f3cc55" d="M 254.625 131.914062 L 254.625 123.636719 L 264.246094 123.636719 L 264.246094 131.914062 L 254.625 131.914062 " fill-opacity="1" fill-rule="nonzero"/><path fill="#f3cc55" d="M 254.625 236.445312 L 254.625 228.167969 L 264.246094 228.167969 L 264.246094 236.445312 L 254.625 236.445312 " fill-opacity="1" fill-rule="nonzero"/><path fill="#f3cc55" d="M 254.625 251.378906 L 254.625 243.101562 L 264.246094 243.101562 L 264.246094 251.378906 L 254.625 251.378906 " fill-opacity="1" fill-rule="nonzero"/><path fill="#f3cc55" d="M 254.625 221.511719 L 254.625 213.234375 L 264.246094 213.234375 L 264.246094 221.511719 L 254.625 221.511719 " fill-opacity="1" fill-rule="nonzero"/><path fill="#f3cc55" d="M 254.625 206.578125 L 254.625 198.300781 L 264.246094 198.300781 L 264.246094 206.578125 L 254.625 206.578125 " fill-opacity="1" fill-rule="nonzero"/><path fill="#f3cc55" d="M 191.648438 120.390625 L 183.371094 120.390625 L 183.371094 110.769531 L 191.648438 110.769531 L 191.648438 120.390625 " fill-opacity="1" fill-rule="nonzero"/><path fill="#f3cc55" d="M 176.714844 120.390625 L 168.4375 120.390625 L 168.4375 110.769531 L 176.714844 110.769531 L 176.714844 120.390625 " fill-opacity="1" fill-rule="nonzero"/><path fill="#f3cc55" d="M 161.78125 120.390625 L 153.503906 120.390625 L 153.503906 110.769531 L 161.78125 110.769531 L 161.78125 120.390625 " fill-opacity="1" fill-rule="nonzero"/><path fill="#f3cc55" d="M 146.847656 120.390625 L 138.570312 120.390625 L 138.570312 110.769531 L 146.847656 110.769531 L 146.847656 120.390625 " fill-opacity="1" fill-rule="nonzero"/><path fill="#f3cc55" d="M 131.914062 120.390625 L 123.636719 120.390625 L 123.636719 110.769531 L 131.914062 110.769531 L 131.914062 120.390625 " fill-opacity="1" fill-rule="nonzero"/><path fill="#f3cc55" d="M 236.449219 120.390625 L 228.171875 120.390625 L 228.171875 110.769531 L 236.449219 110.769531 L 236.449219 120.390625 " fill-opacity="1" fill-rule="nonzero"/><path fill="#f3cc55" d="M 251.382812 120.390625 L 243.105469 120.390625 L 243.105469 110.769531 L 251.382812 110.769531 L 251.382812 120.390625 " fill-opacity="1" fill-rule="nonzero"/><path fill="#f3cc55" d="M 221.515625 120.390625 L 213.238281 120.390625 L 213.238281 110.769531 L 221.515625 110.769531 L 221.515625 120.390625 " fill-opacity="1" fill-rule="nonzero"/><path fill="#f3cc55" d="M 206.582031 120.390625 L 198.304688 120.390625 L 198.304688 110.769531 L 206.582031 110.769531 L 206.582031 120.390625 " fill-opacity="1" fill-rule="nonzero"/><path fill="#f3cc55" d="M 191.648438 254.625 L 183.371094 254.625 L 183.371094 264.242188 L 191.648438 264.242188 L 191.648438 254.625 " fill-opacity="1" fill-rule="nonzero"/><path fill="#f3cc55" d="M 176.714844 254.625 L 168.4375 254.625 L 168.4375 264.242188 L 176.714844 264.242188 L 176.714844 254.625 " fill-opacity="1" fill-rule="nonzero"/><path fill="#f3cc55" d="M 161.78125 254.625 L 153.503906 254.625 L 153.503906 264.242188 L 161.78125 264.242188 L 161.78125 254.625 " fill-opacity="1" fill-rule="nonzero"/><path fill="#f3cc55" d="M 146.847656 254.625 L 138.570312 254.625 L 138.570312 264.242188 L 146.847656 264.242188 L 146.847656 254.625 " fill-opacity="1" fill-rule="nonzero"/><path fill="#f3cc55" d="M 131.914062 254.625 L 123.636719 254.625 L 123.636719 264.242188 L 131.914062 264.242188 L 131.914062 254.625 " fill-opacity="1" fill-rule="nonzero"/><path fill="#f3cc55" d="M 236.449219 254.625 L 228.171875 254.625 L 228.171875 264.242188 L 236.449219 264.242188 L 236.449219 254.625 " fill-opacity="1" fill-rule="nonzero"/><path fill="#f3cc55" d="M 251.382812 254.625 L 243.105469 254.625 L 243.105469 264.242188 L 251.382812 264.242188 L 251.382812 254.625 " fill-opacity="1" fill-rule="nonzero"/><path fill="#f3cc55" d="M 221.515625 254.625 L 213.238281 254.625 L 213.238281 264.242188 L 221.515625 264.242188 L 221.515625 254.625 " fill-opacity="1" fill-rule="nonzero"/><path fill="#f3cc55" d="M 206.582031 254.625 L 198.304688 254.625 L 198.304688 264.242188 L 206.582031 264.242188 L 206.582031 254.625 " fill-opacity="1" fill-rule="nonzero"/><path fill="#f3cc55" d="M 120.394531 191.644531 L 120.394531 183.367188 L 110.773438 183.367188 L 110.773438 191.644531 L 120.394531 191.644531 " fill-opacity="1" fill-rule="nonzero"/><path fill="#f3cc55" d="M 120.394531 176.710938 L 120.394531 168.433594 L 110.773438 168.433594 L 110.773438 176.710938 L 120.394531 176.710938 " fill-opacity="1" fill-rule="nonzero"/><path fill="#f3cc55" d="M 120.394531 161.78125 L 120.394531 153.5 L 110.773438 153.5 L 110.773438 161.78125 L 120.394531 161.78125 " fill-opacity="1" fill-rule="nonzero"/><path fill="#f3cc55" d="M 120.394531 146.847656 L 120.394531 138.570312 L 110.773438 138.570312 L 110.773438 146.847656 L 120.394531 146.847656 " fill-opacity="1" fill-rule="nonzero"/><path fill="#f3cc55" d="M 120.394531 131.914062 L 120.394531 123.636719 L 110.773438 123.636719 L 110.773438 131.914062 L 120.394531 131.914062 " fill-opacity="1" fill-rule="nonzero"/><path fill="#f3cc55" d="M 120.394531 236.445312 L 120.394531 228.167969 L 110.773438 228.167969 L 110.773438 236.445312 L 120.394531 236.445312 " fill-opacity="1" fill-rule="nonzero"/><path fill="#f3cc55" d="M 120.394531 251.378906 L 120.394531 243.101562 L 110.773438 243.101562 L 110.773438 251.378906 L 120.394531 251.378906 " fill-opacity="1" fill-rule="nonzero"/><path fill="#f3cc55" d="M 120.394531 221.511719 L 120.394531 213.234375 L 110.773438 213.234375 L 110.773438 221.511719 L 120.394531 221.511719 " fill-opacity="1" fill-rule="nonzero"/><path fill="#f3cc55" d="M 120.394531 206.578125 L 120.394531 198.300781 L 110.773438 198.300781 L 110.773438 206.578125 L 120.394531 206.578125 " fill-opacity="1" fill-rule="nonzero"/><path fill="#f3cc55" d="M 187.0625 110.769531 L 187.957031 110.769531 L 187.957031 44.554688 L 187.0625 44.554688 Z M 187.0625 110.769531 " fill-opacity="1" fill-rule="nonzero"/><path fill="#f3cc55" d="M 190.199219 44.6875 C 190.199219 43.199219 188.996094 41.996094 187.507812 41.996094 C 186.023438 41.996094 184.816406 43.199219 184.816406 44.6875 C 184.816406 46.171875 186.023438 47.378906 187.507812 47.378906 C 188.996094 47.378906 190.199219 46.171875 190.199219 44.6875 " fill-opacity="1" fill-rule="nonzero"/><path fill="#f3cc55" d="M 202.890625 110.769531 L 202.890625 59.070312 L 225.613281 59.070312 L 225.613281 58.175781 L 201.996094 58.175781 L 201.996094 110.769531 L 202.890625 110.769531 " fill-opacity="1" fill-rule="nonzero"/><path fill="#f3cc55" d="M 225.480469 61.316406 C 226.964844 61.316406 228.171875 60.109375 228.171875 58.625 C 228.171875 57.136719 226.964844 55.933594 225.480469 55.933594 C 223.992188 55.933594 222.785156 57.136719 222.785156 58.625 C 222.785156 60.109375 223.992188 61.316406 225.480469 61.316406 " fill-opacity="1" fill-rule="nonzero"/><path fill="#f3cc55" d="M 216.929688 110.769531 L 217.824219 110.769531 L 217.824219 82.484375 L 216.929688 82.484375 Z M 216.929688 110.769531 " fill-opacity="1" fill-rule="nonzero"/><path fill="#f3cc55" d="M 220.066406 82.621094 C 220.066406 81.132812 218.863281 79.925781 217.375 79.925781 C 215.890625 79.925781 214.683594 81.132812 214.683594 82.621094 C 214.683594 84.105469 215.890625 85.3125 217.375 85.3125 C 218.863281 85.3125 220.066406 84.105469 220.066406 82.621094 " fill-opacity="1" fill-rule="nonzero"/><path fill="#f3cc55" d="M 232.757812 110.769531 L 232.757812 71.542969 L 239.433594 71.542969 L 239.433594 50.789062 L 238.539062 50.789062 L 238.539062 70.648438 L 231.863281 70.648438 L 231.863281 110.769531 L 232.757812 110.769531 " fill-opacity="1" fill-rule="nonzero"/><path fill="#f3cc55" d="M 241.679688 50.921875 C 241.679688 49.4375 240.472656 48.230469 238.988281 48.230469 C 237.5 48.230469 236.296875 49.4375 236.296875 50.921875 C 236.296875 52.410156 237.5 53.613281 238.988281 53.613281 C 240.472656 53.613281 241.679688 52.410156 241.679688 50.921875 " fill-opacity="1" fill-rule="nonzero"/><path fill="#f3cc55" d="M 247.691406 110.769531 L 247.691406 80.375 L 257.621094 80.375 L 257.621094 44.554688 L 256.726562 44.554688 L 256.726562 79.480469 L 246.796875 79.480469 L 246.796875 110.769531 L 247.691406 110.769531 " fill-opacity="1" fill-rule="nonzero"/><path fill="#f3cc55" d="M 259.863281 44.6875 C 259.863281 43.199219 258.660156 41.996094 257.171875 41.996094 C 255.6875 41.996094 254.480469 43.199219 254.480469 44.6875 C 254.480469 46.171875 255.6875 47.378906 257.171875 47.378906 C 258.660156 47.378906 259.863281 46.171875 259.863281 44.6875 " fill-opacity="1" fill-rule="nonzero"/><path fill="#f3cc55" d="M 173.023438 110.769531 L 173.023438 58.175781 L 149.40625 58.175781 L 149.40625 59.070312 L 172.128906 59.070312 L 172.128906 110.769531 L 173.023438 110.769531 " fill-opacity="1" fill-rule="nonzero"/><path fill="#f3cc55" d="M 149.539062 55.933594 C 148.054688 55.933594 146.847656 57.136719 146.847656 58.625 C 146.847656 60.109375 148.054688 61.316406 149.539062 61.316406 C 151.027344 61.316406 152.230469 60.109375 152.230469 58.625 C 152.230469 57.136719 151.027344 55.933594 149.539062 55.933594 " fill-opacity="1" fill-rule="nonzero"/><path fill="#f3cc55" d="M 157.195312 110.769531 L 158.089844 110.769531 L 158.089844 82.484375 L 157.195312 82.484375 Z M 157.195312 110.769531 " fill-opacity="1" fill-rule="nonzero"/><path fill="#f3cc55" d="M 160.335938 82.621094 C 160.335938 81.132812 159.128906 79.925781 157.640625 79.925781 C 156.15625 79.925781 154.949219 81.132812 154.949219 82.621094 C 154.949219 84.105469 156.15625 85.3125 157.640625 85.3125 C 159.128906 85.3125 160.335938 84.105469 160.335938 82.621094 " fill-opacity="1" fill-rule="nonzero"/><path fill="#f3cc55" d="M 143.15625 110.769531 L 143.15625 70.648438 L 136.480469 70.648438 L 136.480469 50.789062 L 135.585938 50.789062 L 135.585938 71.542969 L 142.261719 71.542969 L 142.261719 110.769531 L 143.15625 110.769531 " fill-opacity="1" fill-rule="nonzero"/><path fill="#f3cc55" d="M 138.722656 50.921875 C 138.722656 49.4375 137.519531 48.230469 136.03125 48.230469 C 134.546875 48.230469 133.339844 49.4375 133.339844 50.921875 C 133.339844 52.410156 134.546875 53.613281 136.03125 53.613281 C 137.519531 53.613281 138.722656 52.410156 138.722656 50.921875 " fill-opacity="1" fill-rule="nonzero"/><path fill="#f3cc55" d="M 128.222656 110.769531 L 128.222656 79.480469 L 118.292969 79.480469 L 118.292969 44.554688 L 117.398438 44.554688 L 117.398438 80.375 L 127.328125 80.375 L 127.328125 110.769531 L 128.222656 110.769531 " fill-opacity="1" fill-rule="nonzero"/><path fill="#f3cc55" d="M 120.539062 44.6875 C 120.539062 43.199219 119.332031 41.996094 117.847656 41.996094 C 116.359375 41.996094 115.15625 43.199219 115.15625 44.6875 C 115.15625 46.171875 116.359375 47.378906 117.847656 47.378906 C 119.332031 47.378906 120.539062 46.171875 120.539062 44.6875 " fill-opacity="1" fill-rule="nonzero"/><path fill="#f3cc55" d="M 187.0625 330.460938 L 187.957031 330.460938 L 187.957031 264.242188 L 187.0625 264.242188 Z M 187.0625 330.460938 " fill-opacity="1" fill-rule="nonzero"/><path fill="#f3cc55" d="M 184.816406 330.328125 C 184.816406 331.816406 186.023438 333.019531 187.507812 333.019531 C 188.996094 333.019531 190.199219 331.816406 190.199219 330.328125 C 190.199219 328.84375 188.996094 327.636719 187.507812 327.636719 C 186.023438 327.636719 184.816406 328.84375 184.816406 330.328125 " fill-opacity="1" fill-rule="nonzero"/><path fill="#f3cc55" d="M 201.996094 264.242188 L 201.996094 316.839844 L 225.613281 316.839844 L 225.613281 315.945312 L 202.890625 315.945312 L 202.890625 264.242188 L 201.996094 264.242188 " fill-opacity="1" fill-rule="nonzero"/><path fill="#f3cc55" d="M 225.480469 319.085938 C 226.964844 319.085938 228.171875 317.878906 228.171875 316.394531 C 228.171875 314.90625 226.964844 313.703125 225.480469 313.703125 C 223.992188 313.703125 222.785156 314.90625 222.785156 316.394531 C 222.785156 317.878906 223.992188 319.085938 225.480469 319.085938 " fill-opacity="1" fill-rule="nonzero"/><path fill="#f3cc55" d="M 216.929688 292.53125 L 217.824219 292.53125 L 217.824219 264.242188 L 216.929688 264.242188 Z M 216.929688 292.53125 " fill-opacity="1" fill-rule="nonzero"/><path fill="#f3cc55" d="M 214.683594 292.398438 C 214.683594 293.882812 215.890625 295.089844 217.375 295.089844 C 218.863281 295.089844 220.066406 293.882812 220.066406 292.398438 C 220.066406 290.910156 218.863281 289.707031 217.375 289.707031 C 215.890625 289.707031 214.683594 290.910156 214.683594 292.398438 " fill-opacity="1" fill-rule="nonzero"/><path fill="#f3cc55" d="M 231.863281 264.242188 L 231.863281 304.371094 L 238.539062 304.371094 L 238.539062 324.226562 L 239.433594 324.226562 L 239.433594 303.476562 L 232.757812 303.476562 L 232.757812 264.242188 L 231.863281 264.242188 " fill-opacity="1" fill-rule="nonzero"/><path fill="#f3cc55" d="M 236.296875 324.09375 C 236.296875 325.578125 237.5 326.785156 238.988281 326.785156 C 240.472656 326.785156 241.679688 325.578125 241.679688 324.09375 C 241.679688 322.605469 240.472656 321.402344 238.988281 321.402344 C 237.5 321.402344 236.296875 322.605469 236.296875 324.09375 " fill-opacity="1" fill-rule="nonzero"/><path fill="#f3cc55" d="M 246.796875 264.242188 L 246.796875 295.535156 L 256.726562 295.535156 L 256.726562 330.460938 L 257.621094 330.460938 L 257.621094 294.640625 L 247.691406 294.640625 L 247.691406 264.242188 L 246.796875 264.242188 " fill-opacity="1" fill-rule="nonzero"/><path fill="#f3cc55" d="M 254.480469 330.328125 C 254.480469 331.816406 255.6875 333.019531 257.171875 333.019531 C 258.660156 333.019531 259.863281 331.816406 259.863281 330.328125 C 259.863281 328.84375 258.660156 327.636719 257.171875 327.636719 C 255.6875 327.636719 254.480469 328.84375 254.480469 330.328125 " fill-opacity="1" fill-rule="nonzero"/><path fill="#f3cc55" d="M 172.128906 264.242188 L 172.128906 315.945312 L 149.40625 315.945312 L 149.40625 316.839844 L 173.023438 316.839844 L 173.023438 264.242188 L 172.128906 264.242188 " fill-opacity="1" fill-rule="nonzero"/><path fill="#f3cc55" d="M 149.539062 313.703125 C 148.054688 313.703125 146.847656 314.90625 146.847656 316.394531 C 146.847656 317.878906 148.054688 319.085938 149.539062 319.085938 C 151.027344 319.085938 152.230469 317.878906 152.230469 316.394531 C 152.230469 314.90625 151.027344 313.703125 149.539062 313.703125 " fill-opacity="1" fill-rule="nonzero"/><path fill="#f3cc55" d="M 157.195312 292.53125 L 158.089844 292.53125 L 158.089844 264.242188 L 157.195312 264.242188 Z M 157.195312 292.53125 " fill-opacity="1" fill-rule="nonzero"/><path fill="#f3cc55" d="M 154.949219 292.398438 C 154.949219 293.882812 156.15625 295.089844 157.640625 295.089844 C 159.128906 295.089844 160.335938 293.882812 160.335938 292.398438 C 160.335938 290.910156 159.128906 289.707031 157.640625 289.707031 C 156.15625 289.707031 154.949219 290.910156 154.949219 292.398438 " fill-opacity="1" fill-rule="nonzero"/><path fill="#f3cc55" d="M 142.261719 264.242188 L 142.261719 303.476562 L 135.585938 303.476562 L 135.585938 324.226562 L 136.480469 324.226562 L 136.480469 304.371094 L 143.15625 304.371094 L 143.15625 264.242188 L 142.261719 264.242188 " fill-opacity="1" fill-rule="nonzero"/><path fill="#f3cc55" d="M 133.339844 324.09375 C 133.339844 325.578125 134.546875 326.785156 136.03125 326.785156 C 137.519531 326.785156 138.722656 325.578125 138.722656 324.09375 C 138.722656 322.605469 137.519531 321.402344 136.03125 321.402344 C 134.546875 321.402344 133.339844 322.605469 133.339844 324.09375 " fill-opacity="1" fill-rule="nonzero"/><path fill="#f3cc55" d="M 127.328125 264.242188 L 127.328125 294.640625 L 117.398438 294.640625 L 117.398438 330.460938 L 118.292969 330.460938 L 118.292969 295.535156 L 128.222656 295.535156 L 128.222656 264.242188 L 127.328125 264.242188 " fill-opacity="1" fill-rule="nonzero"/><path fill="#f3cc55" d="M 115.15625 330.328125 C 115.15625 331.816406 116.359375 333.019531 117.847656 333.019531 C 119.332031 333.019531 120.539062 331.816406 120.539062 330.328125 C 120.539062 328.84375 119.332031 327.636719 117.847656 327.636719 C 116.359375 327.636719 115.15625 328.84375 115.15625 330.328125 " fill-opacity="1" fill-rule="nonzero"/><path fill="#f3cc55" d="M 264.246094 187.953125 L 330.464844 187.953125 L 330.464844 187.058594 L 264.246094 187.058594 Z M 264.246094 187.953125 " fill-opacity="1" fill-rule="nonzero"/><path fill="#f3cc55" d="M 330.328125 190.199219 C 331.816406 190.199219 333.023438 188.996094 333.023438 187.507812 C 333.023438 186.023438 331.816406 184.816406 330.328125 184.816406 C 328.84375 184.816406 327.636719 186.023438 327.636719 187.507812 C 327.636719 188.996094 328.84375 190.199219 330.328125 190.199219 " fill-opacity="1" fill-rule="nonzero"/><path fill="#f3cc55" d="M 264.246094 202.886719 L 315.945312 202.886719 L 315.945312 225.613281 L 316.84375 225.613281 L 316.84375 201.992188 L 264.246094 201.992188 L 264.246094 202.886719 " fill-opacity="1" fill-rule="nonzero"/><path fill="#f3cc55" d="M 313.703125 225.480469 C 313.703125 226.964844 314.90625 228.167969 316.394531 228.167969 C 317.878906 228.167969 319.085938 226.964844 319.085938 225.480469 C 319.085938 223.992188 317.878906 222.785156 316.394531 222.785156 C 314.90625 222.785156 313.703125 223.992188 313.703125 225.480469 " fill-opacity="1" fill-rule="nonzero"/><path fill="#f3cc55" d="M 264.246094 217.820312 L 292.535156 217.820312 L 292.535156 216.925781 L 264.246094 216.925781 Z M 264.246094 217.820312 " fill-opacity="1" fill-rule="nonzero"/><path fill="#f3cc55" d="M 292.398438 220.066406 C 293.882812 220.066406 295.089844 218.863281 295.089844 217.375 C 295.089844 215.886719 293.882812 214.683594 292.398438 214.683594 C 290.914062 214.683594 289.707031 215.886719 289.707031 217.375 C 289.707031 218.863281 290.914062 220.066406 292.398438 220.066406 " fill-opacity="1" fill-rule="nonzero"/><path fill="#f3cc55" d="M 264.246094 232.753906 L 303.476562 232.753906 L 303.476562 239.433594 L 324.230469 239.433594 L 324.230469 238.539062 L 304.371094 238.539062 L 304.371094 231.859375 L 264.246094 231.859375 L 264.246094 232.753906 " fill-opacity="1" fill-rule="nonzero"/><path fill="#f3cc55" d="M 324.09375 241.675781 C 325.582031 241.675781 326.789062 240.472656 326.789062 238.984375 C 326.789062 237.5 325.582031 236.292969 324.09375 236.292969 C 322.609375 236.292969 321.402344 237.5 321.402344 238.984375 C 321.402344 240.472656 322.609375 241.675781 324.09375 241.675781 " fill-opacity="1" fill-rule="nonzero"/><path fill="#f3cc55" d="M 264.246094 247.6875 L 294.644531 247.6875 L 294.644531 257.621094 L 330.464844 257.621094 L 330.464844 256.722656 L 295.539062 256.722656 L 295.539062 246.792969 L 264.246094 246.792969 L 264.246094 247.6875 " fill-opacity="1" fill-rule="nonzero"/><path fill="#f3cc55" d="M 330.328125 259.863281 C 331.816406 259.863281 333.023438 258.660156 333.023438 257.171875 C 333.023438 255.6875 331.816406 254.480469 330.328125 254.480469 C 328.84375 254.480469 327.636719 255.6875 327.636719 257.171875 C 327.636719 258.660156 328.84375 259.863281 330.328125 259.863281 " fill-opacity="1" fill-rule="nonzero"/><path fill="#f3cc55" d="M 264.246094 173.019531 L 316.84375 173.019531 L 316.84375 149.402344 L 315.945312 149.402344 L 315.945312 172.125 L 264.246094 172.125 L 264.246094 173.019531 " fill-opacity="1" fill-rule="nonzero"/><path fill="#f3cc55" d="M 319.085938 149.539062 C 319.085938 148.050781 317.878906 146.847656 316.394531 146.847656 C 314.90625 146.847656 313.703125 148.050781 313.703125 149.539062 C 313.703125 151.023438 314.90625 152.230469 316.394531 152.230469 C 317.878906 152.230469 319.085938 151.023438 319.085938 149.539062 " fill-opacity="1" fill-rule="nonzero"/><path fill="#f3cc55" d="M 264.246094 158.089844 L 292.535156 158.089844 L 292.535156 157.191406 L 264.246094 157.191406 Z M 264.246094 158.089844 " fill-opacity="1" fill-rule="nonzero"/><path fill="#f3cc55" d="M 292.398438 160.335938 C 293.882812 160.335938 295.089844 159.128906 295.089844 157.640625 C 295.089844 156.15625 293.882812 154.949219 292.398438 154.949219 C 290.914062 154.949219 289.707031 156.15625 289.707031 157.640625 C 289.707031 159.128906 290.914062 160.335938 292.398438 160.335938 " fill-opacity="1" fill-rule="nonzero"/><path fill="#f3cc55" d="M 264.246094 143.15625 L 304.371094 143.15625 L 304.371094 136.476562 L 324.230469 136.476562 L 324.230469 135.582031 L 303.476562 135.582031 L 303.476562 142.261719 L 264.246094 142.261719 L 264.246094 143.15625 " fill-opacity="1" fill-rule="nonzero"/><path fill="#f3cc55" d="M 324.09375 138.722656 C 325.582031 138.722656 326.789062 137.519531 326.789062 136.03125 C 326.789062 134.546875 325.582031 133.339844 324.09375 133.339844 C 322.609375 133.339844 321.402344 134.546875 321.402344 136.03125 C 321.402344 137.519531 322.609375 138.722656 324.09375 138.722656 " fill-opacity="1" fill-rule="nonzero"/><path fill="#f3cc55" d="M 264.246094 128.222656 L 295.539062 128.222656 L 295.539062 118.292969 L 330.464844 118.292969 L 330.464844 117.398438 L 294.644531 117.398438 L 294.644531 127.328125 L 264.246094 127.328125 L 264.246094 128.222656 " fill-opacity="1" fill-rule="nonzero"/><path fill="#f3cc55" d="M 330.328125 120.535156 C 331.816406 120.535156 333.023438 119.332031 333.023438 117.84375 C 333.023438 116.359375 331.816406 115.152344 330.328125 115.152344 C 328.84375 115.152344 327.636719 116.359375 327.636719 117.84375 C 327.636719 119.332031 328.84375 120.535156 330.328125 120.535156 " fill-opacity="1" fill-rule="nonzero"/><path fill="#f3cc55" d="M 44.554688 187.953125 L 110.773438 187.953125 L 110.773438 187.058594 L 44.554688 187.058594 Z M 44.554688 187.953125 " fill-opacity="1" fill-rule="nonzero"/><path fill="#f3cc55" d="M 44.691406 184.816406 C 43.203125 184.816406 42 186.023438 42 187.507812 C 42 188.996094 43.203125 190.199219 44.691406 190.199219 C 46.175781 190.199219 47.382812 188.996094 47.382812 187.507812 C 47.382812 186.023438 46.175781 184.816406 44.691406 184.816406 " fill-opacity="1" fill-rule="nonzero"/><path fill="#f3cc55" d="M 110.773438 201.992188 L 58.179688 201.992188 L 58.179688 225.613281 L 59.074219 225.613281 L 59.074219 202.886719 L 110.773438 202.886719 L 110.773438 201.992188 " fill-opacity="1" fill-rule="nonzero"/><path fill="#f3cc55" d="M 55.933594 225.480469 C 55.933594 226.964844 57.140625 228.167969 58.625 228.167969 C 60.109375 228.167969 61.316406 226.964844 61.316406 225.480469 C 61.316406 223.992188 60.109375 222.785156 58.625 222.785156 C 57.140625 222.785156 55.933594 223.992188 55.933594 225.480469 " fill-opacity="1" fill-rule="nonzero"/><path fill="#f3cc55" d="M 82.488281 217.820312 L 110.773438 217.820312 L 110.773438 216.925781 L 82.488281 216.925781 Z M 82.488281 217.820312 " fill-opacity="1" fill-rule="nonzero"/><path fill="#f3cc55" d="M 82.621094 214.683594 C 81.132812 214.683594 79.929688 215.886719 79.929688 217.375 C 79.929688 218.863281 81.132812 220.066406 82.621094 220.066406 C 84.105469 220.066406 85.3125 218.863281 85.3125 217.375 C 85.3125 215.886719 84.105469 214.683594 82.621094 214.683594 " fill-opacity="1" fill-rule="nonzero"/><path fill="#f3cc55" d="M 110.773438 231.859375 L 70.648438 231.859375 L 70.648438 238.539062 L 50.789062 238.539062 L 50.789062 239.433594 L 71.542969 239.433594 L 71.542969 232.753906 L 110.773438 232.753906 L 110.773438 231.859375 " fill-opacity="1" fill-rule="nonzero"/><path fill="#f3cc55" d="M 50.925781 236.292969 C 49.4375 236.292969 48.234375 237.5 48.234375 238.984375 C 48.234375 240.472656 49.4375 241.675781 50.925781 241.675781 C 52.410156 241.675781 53.617188 240.472656 53.617188 238.984375 C 53.617188 237.5 52.410156 236.292969 50.925781 236.292969 " fill-opacity="1" fill-rule="nonzero"/><path fill="#f3cc55" d="M 110.773438 246.792969 L 79.480469 246.792969 L 79.480469 256.722656 L 44.554688 256.722656 L 44.554688 257.621094 L 80.375 257.621094 L 80.375 247.6875 L 110.773438 247.6875 L 110.773438 246.792969 " fill-opacity="1" fill-rule="nonzero"/><path fill="#f3cc55" d="M 44.691406 254.480469 C 43.203125 254.480469 42 255.6875 42 257.171875 C 42 258.660156 43.203125 259.863281 44.691406 259.863281 C 46.175781 259.863281 47.382812 258.660156 47.382812 257.171875 C 47.382812 255.6875 46.175781 254.480469 44.691406 254.480469 " fill-opacity="1" fill-rule="nonzero"/><path fill="#f3cc55" d="M 110.773438 172.125 L 59.074219 172.125 L 59.074219 149.402344 L 58.179688 149.402344 L 58.179688 173.019531 L 110.773438 173.019531 L 110.773438 172.125 " fill-opacity="1" fill-rule="nonzero"/><path fill="#f3cc55" d="M 61.316406 149.539062 C 61.316406 148.050781 60.109375 146.847656 58.625 146.847656 C 57.140625 146.847656 55.933594 148.050781 55.933594 149.539062 C 55.933594 151.023438 57.140625 152.230469 58.625 152.230469 C 60.109375 152.230469 61.316406 151.023438 61.316406 149.539062 " fill-opacity="1" fill-rule="nonzero"/><path fill="#f3cc55" d="M 82.488281 158.089844 L 110.773438 158.089844 L 110.773438 157.191406 L 82.488281 157.191406 Z M 82.488281 158.089844 " fill-opacity="1" fill-rule="nonzero"/><path fill="#f3cc55" d="M 82.621094 154.949219 C 81.132812 154.949219 79.929688 156.15625 79.929688 157.640625 C 79.929688 159.128906 81.132812 160.335938 82.621094 160.335938 C 84.105469 160.335938 85.3125 159.128906 85.3125 157.640625 C 85.3125 156.15625 84.105469 154.949219 82.621094 154.949219 " fill-opacity="1" fill-rule="nonzero"/><path fill="#f3cc55" d="M 110.773438 142.261719 L 71.542969 142.261719 L 71.542969 135.582031 L 50.789062 135.582031 L 50.789062 136.476562 L 70.648438 136.476562 L 70.648438 143.15625 L 110.773438 143.15625 L 110.773438 142.261719 " fill-opacity="1" fill-rule="nonzero"/><path fill="#f3cc55" d="M 50.925781 133.339844 C 49.4375 133.339844 48.234375 134.546875 48.234375 136.03125 C 48.234375 137.519531 49.4375 138.722656 50.925781 138.722656 C 52.410156 138.722656 53.617188 137.519531 53.617188 136.03125 C 53.617188 134.546875 52.410156 133.339844 50.925781 133.339844 " fill-opacity="1" fill-rule="nonzero"/><path fill="#f3cc55" d="M 110.773438 127.328125 L 80.375 127.328125 L 80.375 117.398438 L 44.554688 117.398438 L 44.554688 118.292969 L 79.480469 118.292969 L 79.480469 128.222656 L 110.773438 128.222656 L 110.773438 127.328125 " fill-opacity="1" fill-rule="nonzero"/><path fill="#f3cc55" d="M 44.691406 115.152344 C 43.203125 115.152344 42 116.359375 42 117.84375 C 42 119.332031 43.203125 120.535156 44.691406 120.535156 C 46.175781 120.535156 47.382812 119.332031 47.382812 117.84375 C 47.382812 116.359375 46.175781 115.152344 44.691406 115.152344 " fill-opacity="1" fill-rule="nonzero"/><path fill="#538525" d="M 251.632812 254.625 L 123.390625 254.625 C 121.734375 254.625 120.394531 253.28125 120.394531 251.628906 L 120.394531 123.386719 C 120.394531 121.734375 121.734375 120.390625 123.390625 120.390625 L 251.632812 120.390625 C 253.285156 120.390625 254.625 121.734375 254.625 123.386719 L 254.625 251.628906 C 254.625 253.28125 253.285156 254.625 251.632812 254.625 " fill-opacity="1" fill-rule="nonzero"/><path fill="#f3cc55" d="M 236.6875 238.984375 L 236.6875 237.195312 L 138.328125 237.195312 C 138.183594 237.195312 138.070312 237.140625 137.972656 237.046875 C 137.875 236.949219 137.820312 236.835938 137.820312 236.6875 L 137.820312 138.328125 C 137.820312 138.183594 137.875 138.066406 137.972656 137.96875 C 138.070312 137.875 138.183594 137.820312 138.328125 137.820312 L 236.6875 137.820312 C 236.835938 137.820312 236.953125 137.875 237.050781 137.96875 C 237.144531 138.066406 237.195312 138.183594 237.199219 138.328125 L 237.199219 236.6875 C 237.195312 236.835938 237.144531 236.949219 237.050781 237.046875 C 236.953125 237.140625 236.835938 237.195312 236.6875 237.195312 L 236.6875 240.777344 C 237.8125 240.777344 238.847656 240.316406 239.578125 239.578125 C 240.316406 238.84375 240.777344 237.8125 240.777344 236.6875 L 240.777344 138.328125 C 240.777344 137.207031 240.316406 136.171875 239.578125 135.4375 C 238.847656 134.699219 237.8125 134.242188 236.6875 134.242188 L 138.328125 134.242188 C 137.207031 134.242188 136.175781 134.699219 135.441406 135.4375 C 134.703125 136.171875 134.242188 137.207031 134.242188 138.328125 L 134.242188 236.6875 C 134.242188 237.8125 134.703125 238.84375 135.441406 239.578125 C 136.175781 240.316406 137.207031 240.777344 138.328125 240.777344 L 236.6875 240.777344 L 236.6875 238.984375 " fill-opacity="1" fill-rule="nonzero"/><path fill="#303143" d="M 222.738281 224.382812 L 152.28125 224.382812 C 151.371094 224.382812 150.636719 223.644531 150.636719 222.734375 L 150.636719 152.28125 C 150.636719 151.371094 151.371094 150.632812 152.28125 150.632812 L 222.738281 150.632812 C 223.648438 150.632812 224.382812 151.371094 224.382812 152.28125 L 224.382812 222.734375 C 224.382812 223.644531 223.648438 224.382812 222.738281 224.382812 " fill-opacity="1" fill-rule="nonzero"/><path stroke-linecap="butt" transform="matrix(0.0257399, -0.0623494, 0.0625394, 0.0256617, 109.316496, 222.514819)" fill-opacity="1" fill="#c43124" fill-rule="nonzero" stroke-linejoin="miter" d="M 1140.318972 945.650916 C 1140.322186 953.269789 1139.884421 960.882777 1139.112828 968.44578 C 1138.28766 976.030833 1137.053105 983.534539 1135.431147 991.010309 C 1133.809188 998.48608 1131.831419 1005.858452 1129.368703 1013.118114 C 1126.981546 1020.409139 1124.16302 1027.565403 1121.042257 1034.596218 C 1117.867919 1041.649084 1114.293802 1048.491726 1110.363874 1055.23097 C 1106.487522 1061.948163 1102.211391 1068.455133 1097.611041 1074.783241 C 1093.010691 1081.11135 1088.064138 1087.207184 1082.793365 1093.124157 C 1077.500609 1098.987717 1071.937209 1104.650365 1066.059199 1110.005276 C 1060.203171 1115.413599 1054.086109 1120.492135 1047.622843 1125.338396 C 1041.213153 1130.162607 1034.564411 1134.710443 1027.654633 1138.928491 C 1020.744856 1143.146539 1013.649602 1147.066162 1006.346888 1150.633946 C 998.990599 1154.223781 991.502408 1157.493139 983.860333 1160.388609 C 976.164683 1163.306129 968.390707 1165.881123 960.462846 1168.082228 C 952.48141 1170.305383 944.475224 1172.163961 936.315154 1173.64865 C 928.155083 1175.13334 919.970263 1176.253452 911.685133 1176.977625 C 903.475562 1177.73316 895.165683 1178.092756 886.884628 1178.065724 C 878.571982 1178.114155 870.266178 1177.722546 862.011182 1176.997722 C 853.734203 1176.219486 845.583592 1175.139396 837.439823 1173.619267 C 829.264461 1172.1746 821.225076 1170.299205 813.290076 1168.068544 C 805.377059 1165.891297 797.546443 1163.305371 789.89577 1160.395541 C 782.191522 1157.507763 774.698809 1154.220617 767.408022 1150.662982 C 760.095253 1147.051933 752.98441 1143.170394 746.031527 1138.911539 C 739.154203 1134.684047 732.532381 1130.164013 726.090503 1125.320076 C 719.670608 1120.529551 713.537807 1115.371023 707.6509 1110.048829 C 701.795585 1104.651172 696.217756 1099.014387 690.970989 1093.116422 C 685.670645 1087.240509 680.776922 1081.134778 676.160685 1074.789919 C 671.544448 1068.44506 667.249664 1061.967899 663.339516 1055.207507 C 659.451352 1048.500529 655.88464 1041.661247 652.724549 1034.592149 C 649.532866 1027.598514 646.769787 1020.428475 644.32816 1013.126133 C 641.962093 1005.855154 639.917478 998.451871 638.291859 991.00106 C 636.666239 983.550249 635.437632 975.998497 634.650003 968.45263 C 633.84039 960.85335 633.418181 953.282005 633.414967 945.663132 C 633.411753 938.044259 633.849518 930.431271 634.621111 922.868268 C 635.446279 915.283215 636.680835 907.77951 638.302793 900.303739 C 639.924751 892.827969 641.902521 885.455596 644.365237 878.195934 C 646.752393 870.90491 649.57092 863.748646 652.745258 856.69578 C 655.866021 849.664965 659.440137 842.822322 663.370065 836.083079 C 667.246418 829.365885 671.522549 822.858915 676.122899 816.530807 C 680.776824 810.180648 685.669802 804.106865 690.940574 798.189892 C 696.23333 792.326332 701.79673 786.663684 707.674741 781.308773 C 713.530768 775.900449 719.647831 770.821914 726.111096 765.975652 C 732.520787 761.151441 739.169529 756.603605 746.079306 752.385557 C 752.989084 748.167509 760.084338 744.247886 767.387052 740.680102 C 774.721358 737.036855 782.231531 733.820909 789.873606 730.925439 C 797.569257 728.007919 805.343233 725.432925 813.271093 723.231821 C 821.252529 721.008665 829.258715 719.150087 837.418786 717.665398 C 845.578856 716.180709 853.763677 715.060596 862.048807 714.336423 C 870.258377 713.580888 878.568257 713.221293 886.902887 713.226274 C 895.161958 713.199893 903.467762 713.591502 911.722758 714.316326 C 919.999737 715.094563 928.150348 716.174652 936.294117 717.694782 C 944.469478 719.139448 952.508863 721.014843 960.443864 723.245504 C 968.356881 725.422752 976.187497 728.008678 983.83817 730.918507 C 991.542418 733.806286 999.035131 737.093431 1006.325917 740.651067 C 1013.638687 744.262115 1020.74953 748.143654 1027.702413 752.402509 C 1034.579737 756.630002 1041.255134 761.127985 1047.643437 765.993973 C 1054.063332 770.784497 1060.196133 775.943026 1066.083039 781.265219 C 1071.938354 786.662876 1077.516183 792.299662 1082.762951 798.197626 C 1088.063294 804.07354 1092.957017 810.17927 1097.573254 816.524129 C 1102.189492 822.868988 1106.484276 829.34615 1110.394424 836.106541 C 1114.282588 842.813519 1117.849299 849.652801 1121.00939 856.721899 C 1124.201073 863.715534 1126.964153 870.885573 1129.405779 878.187915 C 1131.825422 885.436844 1133.816461 892.862178 1135.442081 900.312989 C 1137.0677 907.763799 1138.296308 915.315551 1139.083937 922.861418 C 1139.893549 930.460698 1140.315759 938.032043 1140.318972 945.650916 Z M 1140.318972 945.650916 " stroke="#000000" stroke-width="7" stroke-opacity="1" stroke-miterlimit="10"/><g clip-path="url(#3814114264)"><path stroke-linecap="butt" transform="matrix(0.0676293, 0, 0, 0.0674238, 131.30689, 127.726544)" fill="none" stroke-linejoin="miter" d="M 761.876408 92.407846 C 761.876408 92.407846 807.737656 26.187243 888.25476 60.774907 " stroke="#000000" stroke-width="7" stroke-opacity="1" stroke-miterlimit="10"/></g><path stroke-linecap="butt" transform="matrix(0.0676293, 0, 0, 0.0674238, 131.30689, 127.726544)" fill="none" stroke-linejoin="miter" d="M 754.07884 149.648402 C 754.07884 149.648402 819.116329 44.668759 941.335978 113.844087 " stroke="#000000" stroke-width="7" stroke-opacity="1" stroke-miterlimit="10"/><path stroke-linecap="butt" transform="matrix(0.0676293, 0, 0, 0.0674238, 131.30689, 127.726544)" fill="none" stroke-linejoin="miter" d="M 1508.248011 436.198797 C 1508.248011 436.198797 1637.514352 435.387696 1642.481691 568.002709 " stroke="#000000" stroke-width="7" stroke-opacity="1" stroke-miterlimit="10"/><g clip-path="url(#f163feffd5)"><path stroke-linecap="butt" transform="matrix(0.0676293, 0, 0, 0.0674238, 131.30689, 127.726544)" fill="none" stroke-linejoin="miter" d="M 1697.180182 1357.725401 C 1697.180182 1357.725401 1740.268963 1340.344665 1741.943996 1276.557365 " stroke="#000000" stroke-width="7" stroke-opacity="1" stroke-miterlimit="10"/></g><path stroke-linecap="butt" transform="matrix(0.0676293, 0, 0, 0.0674238, 131.30689, 127.726544)" fill="none" stroke-linejoin="miter" d="M 1666.50975 1178.76176 C 1666.50975 1178.76176 1736.976656 1266.59241 1611.002622 1373.483935 " stroke="#000000" stroke-width="7" stroke-opacity="1" stroke-miterlimit="10"/><g clip-path="url(#3ea2d421e6)"><path stroke-linecap="butt" transform="matrix(0.0676293, 0, 0, 0.0674238, 131.30689, 127.726544)" fill="none" stroke-linejoin="miter" d="M 720.924738 1734.018328 C 720.924738 1734.018328 792.546839 1814.375262 886.868526 1789.52081 " stroke="#000000" stroke-width="7" stroke-opacity="1" stroke-miterlimit="10"/></g><g clip-path="url(#8f6e368e78)"><path stroke-linecap="butt" transform="matrix(0.0676293, 0, 0, 0.0674238, 131.30689, 127.726544)" fill="none" stroke-linejoin="miter" d="M 68.759301 1379.277513 C 68.759301 1379.277513 65.409235 1441.442611 96.888304 1455.521007 " stroke="#000000" stroke-width="7" stroke-opacity="1" stroke-miterlimit="10"/></g><g clip-path="url(#29eee5c6f3)"><path stroke-linecap="butt" transform="matrix(0.0676293, 0, 0, 0.0674238, 131.30689, 127.726544)" fill="none" stroke-linejoin="miter" d="M 123.457793 1375.164072 C 123.457793 1375.164072 110.173049 1464.674861 200.509311 1504.41881 " stroke="#000000" stroke-width="7" stroke-opacity="1" stroke-miterlimit="10"/></g><g clip-path="url(#cdaf934925)"><path stroke-linecap="butt" transform="matrix(0.0676293, 0, 0, 0.0674238, 131.30689, 127.726544)" fill="none" stroke-linejoin="miter" d="M 62.232449 478.202242 C 62.232449 478.202242 81.755247 402.711913 201.664507 403.58095 " stroke="#000000" stroke-width="7" stroke-opacity="1" stroke-miterlimit="10"/></g><path stroke-linecap="butt" transform="matrix(0.0676293, 0, 0, 0.0674238, 131.30689, 127.726544)" fill-opacity="1" fill="#bfd2de" fill-rule="nonzero" stroke-linejoin="miter" d="M 1226.438148 1166.363501 C 1226.438148 1166.363501 1260.285367 754.034516 1167.176635 548.478349 C 1167.176635 548.478349 1224.012238 984.966557 1161.111861 1215.898598 Z M 1226.438148 1166.363501 " stroke="#000000" stroke-width="7" stroke-opacity="1" stroke-miterlimit="10"/><g clip-path="url(#f04c72a0c9)"><path stroke-linecap="butt" transform="matrix(0.0676293, 0, 0, 0.0674238, 131.30689, 127.726544)" fill="none" stroke-linejoin="miter" d="M 109.306652 596.333308 C 109.306652 596.333308 107.5161 464.877011 246.081761 445.352651 " stroke="#000000" stroke-width="7" stroke-opacity="1" stroke-miterlimit="10"/></g><path stroke-linecap="butt" transform="matrix(0.0676293, 0, 0, 0.0674238, 131.30689, 127.726544)" fill-opacity="1" fill="#bfd2de" fill-rule="nonzero" stroke-linejoin="miter" d="M 906.853402 636.077257 C 713.820288 723.212678 426.985326 915.153936 426.985326 915.153936 C 502.419571 813.708375 763.78248 657.687305 763.78248 657.687305 L 850.248839 611.106933 Z M 906.853402 636.077257 " stroke="#000000" stroke-width="7" stroke-opacity="1" stroke-miterlimit="10"/><path stroke-linecap="butt" transform="matrix(0.0676293, 0, 0, 0.0674238, 131.30689, 127.726544)" fill-opacity="1" fill="#bfd2de" fill-rule="nonzero" stroke-linejoin="miter" d="M 1482.25612 1405.348617 C 1482.25612 1405.348617 1811.024667 1341.908931 1495.598624 932.998158 C 1495.598624 932.998158 1230.192532 602.532437 709.488306 440.659853 C 709.488306 440.659853 248.79647 316.213785 177.463168 604.96574 C 159.961961 675.879142 171.918231 750.848048 209.231035 813.592504 C 418.205842 1164.567492 933.076333 1325.223425 1103.352102 1365.257053 C 1001.059569 1311.492644 898.767036 1257.670299 796.416743 1203.847955 C 758.295302 1183.802173 720.231621 1163.756391 682.110181 1143.710609 C 611.007917 1106.284092 543.31348 1062.60051 480.413103 1012.601927 C 353.630432 911.909532 296.448271 827.149477 271.727094 764.694701 C 242.442896 690.826574 270.34086 606.124456 338.381856 565.10592 C 472.731055 484.169627 671.078067 552.475919 671.078067 552.475919 C 1018.618536 635.671706 1291.764435 881.782923 1385.450764 975.059538 C 1416.929833 1006.402798 1444.307958 1041.56982 1466.545465 1079.981245 C 1568.144881 1255.87429 1452.163285 1298.515028 1452.163285 1298.515028 Z M 1482.25612 1405.348617 " stroke="#000000" stroke-width="7" stroke-opacity="1" stroke-miterlimit="10"/><path fill="#bfd2de" d="M 202.226562 167.105469 C 202.226562 167.105469 222.050781 158.785156 229.660156 166.371094 C 238.214844 174.898438 223.769531 189.253906 223.769531 189.253906 C 223.769531 189.253906 210.53125 203.921875 182.171875 215.121094 C 182.171875 215.121094 151.476562 227.484375 150.070312 212.316406 L 143.035156 210.5625 C 143.035156 210.5625 135.648438 231.253906 169.59375 225.816406 C 195.214844 221.714844 216.222656 205.777344 224.992188 198.207031 C 229.351562 194.4375 233.019531 189.929688 235.75 184.863281 C 239.648438 177.625 242.453125 167.851562 234.042969 161.9375 C 231.597656 160.21875 228.71875 159.214844 225.738281 158.972656 C 220.78125 158.570312 211.804688 158.183594 197.582031 164.707031 Z M 202.226562 167.105469 " fill-opacity="1" fill-rule="nonzero"/><g clip-path="url(#d67373100c)"><path stroke-linecap="butt" transform="matrix(0.0676293, 0, 0, 0.0674238, 131.30689, 127.726544)" fill="none" stroke-linejoin="miter" d="M 1048.65361 584.050922 C 1048.65361 584.050922 1341.784386 460.647699 1454.300397 573.158994 C 1580.794268 699.632814 1367.19868 912.546825 1367.19868 912.546825 C 1367.19868 912.546825 1171.450857 1130.0957 752.115008 1296.197597 C 752.115008 1296.197597 298.238823 1479.564358 277.44531 1254.599703 L 173.419984 1228.586535 C 173.419984 1228.586535 64.19628 1535.472391 566.128585 1454.825777 C 944.974843 1393.993203 1255.606826 1157.615198 1385.277485 1045.335646 C 1449.737376 989.427613 1503.973789 922.569716 1544.347861 847.427002 C 1601.9921 740.071992 1643.463607 595.116657 1519.106846 507.401877 C 1482.949237 481.910132 1440.380295 467.020635 1396.309599 463.428616 C 1323.012465 457.46123 1190.280539 451.725588 979.977257 548.478349 Z M 1048.65361 584.050922 " stroke="#000000" stroke-width="7" stroke-opacity="1" stroke-miterlimit="10"/></g><path fill="#bfd2de" d="M 214.378906 206.46875 C 214.378906 206.46875 210.894531 247.535156 190.289062 245.414062 C 169.683594 243.296875 166.492188 212.644531 166.492188 212.644531 C 166.492188 212.644531 160.933594 174.082031 174.589844 150.03125 C 188.246094 125.984375 201.328125 141.878906 201.328125 141.878906 L 196.011719 147.179688 C 184.320312 139.351562 177.367188 162.996094 177.367188 162.996094 C 171.316406 180.441406 173.6875 207.34375 173.6875 207.34375 C 177.289062 240.199219 192.332031 238.324219 192.332031 238.324219 C 204.160156 238.242188 209.8125 209.546875 209.8125 209.546875 Z M 214.378906 206.46875 " fill-opacity="1" fill-rule="nonzero"/><g clip-path="url(#47f31c560e)"><path stroke-linecap="butt" transform="matrix(0.0676293, 0, 0, 0.0674238, 131.30689, 127.726544)" fill="none" stroke-linejoin="miter" d="M 1228.34422 1167.869832 C 1228.34422 1167.869832 1176.822515 1776.948745 872.139787 1745.489613 C 567.457059 1714.088417 520.267336 1259.466309 520.267336 1259.466309 C 520.267336 1259.466309 438.075199 687.524234 640.003316 330.813603 C 841.931433 -25.839092 1035.368866 209.901619 1035.368866 209.901619 L 956.757834 288.52048 C 783.882876 172.417166 681.070505 523.102475 681.070505 523.102475 C 591.600638 781.843693 626.660812 1180.847448 626.660812 1180.847448 C 679.91531 1668.145339 902.348141 1640.336162 902.348141 1640.336162 C 1077.244691 1639.119511 1160.823062 1213.523231 1160.823062 1213.523231 Z M 1228.34422 1167.869832 " stroke="#000000" stroke-width="7" stroke-opacity="1" stroke-miterlimit="10"/></g><path stroke-linecap="butt" transform="matrix(0.0369196, -0.0564905, 0.0566627, 0.0368074, 95.77075, 246.514407)" fill-opacity="1" fill="#e8a627" fill-rule="nonzero" stroke-linejoin="miter" d="M 1475.294728 1365.678987 C 1475.289847 1374.161625 1474.547301 1382.573393 1473.115631 1390.882662 C 1471.683962 1399.191932 1469.548646 1407.270288 1466.709684 1415.117731 C 1463.870723 1422.965174 1460.410675 1430.390033 1456.312532 1437.47233 C 1452.182856 1444.506233 1447.529177 1451.054297 1442.28843 1457.019734 C 1437.079215 1463.033564 1431.380014 1468.401513 1425.239369 1473.091951 C 1419.050183 1477.814016 1412.596707 1481.812082 1405.718797 1485.052616 C 1398.920959 1488.309916 1391.875841 1490.763194 1384.631984 1492.380823 C 1377.371118 1494.078473 1370.008594 1494.877219 1362.607478 1494.873846 C 1355.206361 1494.870473 1347.895265 1494.050121 1340.674189 1492.412788 C 1333.421582 1490.727062 1326.370599 1488.289515 1319.538251 1485.020126 C 1312.688894 1481.830759 1306.218316 1477.843081 1300.077978 1473.08872 C 1293.92063 1468.414381 1288.205126 1463.038518 1282.994528 1457.057919 C 1277.752399 1451.028927 1273.078241 1444.491985 1268.972052 1437.447095 C 1264.865864 1430.402204 1261.39071 1422.946152 1258.578121 1415.127331 C 1255.734001 1407.260117 1253.5985 1399.206943 1252.188629 1390.887788 C 1250.698684 1382.551868 1249.980424 1374.126774 1249.985305 1365.644136 C 1249.990186 1357.161498 1250.684191 1348.781359 1252.164402 1340.440461 C 1253.596071 1332.131192 1255.731387 1324.052836 1258.570348 1316.205393 C 1261.40931 1308.35795 1264.869358 1300.93309 1268.967501 1293.850794 C 1273.097177 1286.81689 1277.750856 1280.268827 1282.991603 1274.30339 C 1288.200818 1268.289559 1293.900019 1262.921611 1300.040664 1258.231173 C 1306.22985 1253.509107 1312.683326 1249.511042 1319.512695 1246.302135 C 1326.359074 1243.013208 1333.404192 1240.55993 1340.648049 1238.942301 C 1347.940447 1237.293044 1355.271439 1236.445905 1362.624014 1236.480906 C 1370.025131 1236.484278 1377.384768 1237.273003 1384.605844 1238.910336 C 1391.858451 1240.596062 1398.909434 1243.033609 1405.741782 1246.302998 C 1412.57413 1249.572386 1419.093248 1253.528437 1425.202055 1258.234404 C 1431.390935 1262.957137 1437.074907 1268.284606 1442.317036 1274.313598 C 1447.527634 1280.294197 1452.201792 1286.831138 1456.307981 1293.876029 C 1460.414169 1300.920919 1463.889323 1308.376972 1466.701912 1316.195792 C 1469.546032 1324.063007 1471.681533 1332.116181 1473.122936 1340.483729 C 1474.581348 1348.771256 1475.299609 1357.19635 1475.294728 1365.678987 Z M 1475.294728 1365.678987 " stroke="#000000" stroke-width="7" stroke-opacity="1" stroke-miterlimit="10"/><path stroke-linecap="butt" transform="matrix(0.0676293, 0, 0, 0.0674238, 131.30689, 127.726544)" fill-opacity="1" fill="#00a7c8" fill-rule="nonzero" stroke-linejoin="miter" d="M 1173.29917 336.201631 C 1173.29917 344.544384 1172.548293 352.829202 1171.104299 360.998148 C 1169.660305 369.225029 1167.523194 377.162232 1164.692966 384.867691 C 1161.862737 392.631086 1158.397152 399.930995 1154.296209 406.88329 C 1150.195266 413.835584 1145.516726 420.266456 1140.260588 426.175906 C 1135.062209 432.085356 1129.343993 437.357513 1123.221459 441.992376 C 1117.041165 446.627238 1110.514312 450.566872 1103.69866 453.75334 C 1096.883009 456.939808 1089.836318 459.373111 1082.558589 460.995313 C 1075.280859 462.617515 1067.94537 463.428616 1060.55212 463.428616 C 1053.158871 463.428616 1045.823382 462.617515 1038.545652 460.995313 C 1031.325683 459.373111 1024.278992 456.939808 1017.405581 453.75334 C 1010.589929 450.566872 1004.063076 446.627238 997.940542 441.992376 C 991.760248 437.357513 986.099791 432.085356 980.843653 426.175906 C 975.587515 420.266456 970.908975 413.835584 966.808032 406.88329 C 962.707089 399.930995 959.241503 392.631086 956.411275 384.867691 C 953.581047 377.162232 951.443936 369.225029 949.999942 360.998148 C 948.555948 352.829202 947.805071 344.544384 947.805071 336.201631 C 947.805071 327.858878 948.555948 319.574061 949.999942 311.347179 C 951.443936 303.178234 953.581047 295.241031 956.411275 287.477636 C 959.241503 279.772176 962.707089 272.472267 966.808032 265.519973 C 970.908975 258.567679 975.587515 252.136807 980.843653 246.227357 C 986.099791 240.317906 991.760248 235.04575 997.940542 230.410887 C 1004.063076 225.776024 1010.589929 221.836391 1017.405581 218.649923 C 1024.278992 215.463454 1031.325683 213.030151 1038.545652 211.407949 C 1045.823382 209.785747 1053.158871 208.974646 1060.55212 208.974646 C 1067.94537 208.974646 1075.280859 209.785747 1082.558589 211.407949 C 1089.836318 213.030151 1096.883009 215.463454 1103.69866 218.649923 C 1110.514312 221.836391 1117.041165 225.776024 1123.221459 230.410887 C 1129.343993 235.04575 1135.062209 240.317906 1140.260588 246.227357 C 1145.516726 252.136807 1150.195266 258.567679 1154.296209 265.519973 C 1158.397152 272.472267 1161.862737 279.772176 1164.692966 287.477636 C 1167.523194 295.241031 1169.660305 303.178234 1171.104299 311.347179 C 1172.548293 319.574061 1173.29917 327.858878 1173.29917 336.201631 Z M 1173.29917 336.201631 " stroke="#000000" stroke-width="7" stroke-opacity="1" stroke-miterlimit="10"/><path fill="#9db81e" d="M 154.527344 197.832031 C 154.917969 198.148438 155.265625 198.507812 155.574219 198.902344 C 155.886719 199.300781 156.148438 199.726562 156.371094 200.1875 C 156.589844 200.648438 156.761719 201.132812 156.886719 201.636719 C 157.007812 202.144531 157.078125 202.664062 157.097656 203.195312 C 157.117188 203.726562 157.085938 204.261719 157.003906 204.800781 C 156.921875 205.339844 156.785156 205.871094 156.601562 206.394531 C 156.417969 206.917969 156.1875 207.421875 155.914062 207.910156 C 155.636719 208.402344 155.316406 208.863281 154.957031 209.296875 C 154.597656 209.730469 154.207031 210.132812 153.777344 210.496094 C 153.351562 210.859375 152.894531 211.183594 152.417969 211.464844 C 151.9375 211.742188 151.4375 211.976562 150.925781 212.160156 C 150.410156 212.34375 149.890625 212.480469 149.363281 212.5625 C 148.835938 212.644531 148.308594 212.675781 147.789062 212.652344 C 147.265625 212.628906 146.757812 212.554688 146.261719 212.425781 C 145.765625 212.300781 145.292969 212.121094 144.84375 211.894531 C 144.394531 211.667969 143.976562 211.394531 143.589844 211.078125 C 143.203125 210.757812 142.851562 210.402344 142.542969 210.003906 C 142.234375 209.609375 141.96875 209.179688 141.746094 208.71875 C 141.527344 208.261719 141.355469 207.777344 141.234375 207.269531 C 141.109375 206.765625 141.039062 206.246094 141.019531 205.714844 C 141 205.179688 141.03125 204.644531 141.113281 204.105469 C 141.199219 203.570312 141.332031 203.039062 141.515625 202.515625 C 141.699219 201.992188 141.929688 201.484375 142.207031 200.996094 C 142.480469 200.507812 142.800781 200.046875 143.160156 199.613281 C 143.519531 199.175781 143.914062 198.777344 144.339844 198.414062 C 144.769531 198.046875 145.222656 197.726562 145.703125 197.445312 C 146.183594 197.164062 146.679688 196.933594 147.191406 196.746094 C 147.707031 196.5625 148.226562 196.429688 148.753906 196.347656 C 149.285156 196.265625 149.808594 196.234375 150.328125 196.257812 C 150.851562 196.28125 151.359375 196.355469 151.855469 196.480469 C 152.351562 196.609375 152.824219 196.785156 153.273438 197.011719 C 153.722656 197.242188 154.140625 197.511719 154.527344 197.832031 Z M 154.527344 197.832031 " fill-opacity="1" fill-rule="nonzero"/><g clip-path="url(#bb0677c97d)"><path stroke-linecap="butt" transform="matrix(0.0429883, -0.0520498, 0.0522084, 0.0428577, 78.362109, 169.345184)" fill="none" stroke-linejoin="miter" d="M 389.711881 1137.980555 C 389.760618 1145.422456 388.913514 1152.778968 387.296735 1160.021026 C 385.671946 1167.344501 383.256786 1174.3461 380.071952 1181.233247 C 376.850402 1188.075805 372.919923 1194.60425 368.32524 1200.781756 C 363.649117 1206.9515 358.361525 1212.652062 352.462464 1217.883443 C 346.563404 1223.114824 340.142326 1227.80337 333.199229 1231.94908 C 326.256133 1236.094791 318.888479 1239.542597 311.169698 1242.381677 C 303.450917 1245.220758 295.515185 1247.340632 287.35449 1248.822717 C 279.112355 1250.297038 270.82416 1250.986264 262.481892 1250.971808 C 254.139625 1250.957352 245.861441 1250.291568 237.663361 1248.811623 C 229.501996 1247.376267 221.494165 1245.215929 213.794738 1242.427551 C 206.103321 1239.557756 198.720308 1236.05992 191.808579 1231.94957 C 184.860134 1227.794629 178.411678 1223.153179 172.515946 1217.906976 C 166.620214 1212.660773 161.30591 1206.935822 156.69119 1200.784477 C 152.039754 1194.588542 148.116606 1188.092216 144.929757 1181.214085 C 141.698182 1174.372781 139.313049 1167.283439 137.684909 1160.019712 C 136.056768 1152.755986 135.259049 1145.407053 135.247027 1138.009742 C 135.27973 1130.575604 136.045393 1123.21133 137.706898 1115.932444 C 139.323677 1108.690386 141.746846 1101.60737 144.931681 1094.720223 C 148.108506 1087.914493 152.038985 1081.386047 156.715108 1075.216303 C 161.309791 1069.038797 166.597383 1063.338235 172.496443 1058.106854 C 178.440229 1052.838646 184.861307 1048.150101 191.804404 1044.00439 C 198.73949 1039.940095 206.070428 1036.4477 213.789209 1033.60862 C 221.50799 1030.769539 229.488448 1028.612838 237.685858 1027.175343 C 245.846552 1025.693259 254.134748 1025.004034 262.477015 1025.018489 C 270.864008 1024.996118 279.134182 1025.743318 287.295546 1027.178674 C 295.538351 1028.621793 303.464742 1030.774368 311.200884 1033.607336 C 318.937026 1036.440304 326.2386 1039.930377 333.195054 1044.003901 C 340.143498 1048.158841 346.547229 1052.837118 352.442961 1058.083321 C 358.375408 1063.374114 363.652997 1069.054475 368.267718 1075.20582 C 372.919153 1081.401756 376.842301 1087.898081 380.073876 1094.739385 C 383.260726 1101.617516 385.690584 1108.670031 387.318724 1115.933758 C 388.90214 1123.234311 389.744584 1130.546417 389.711881 1137.980555 Z M 389.711881 1137.980555 " stroke="#000000" stroke-width="7" stroke-opacity="1" stroke-miterlimit="10"/></g></svg>